<?xml version="1.0" encoding="UTF-8" standalone="no"?>
<svg
   xmlns:dc="http://purl.org/dc/elements/1.1/"
   xmlns:cc="http://creativecommons.org/ns#"
   xmlns:rdf="http://www.w3.org/1999/02/22-rdf-syntax-ns#"
   xmlns:svg="http://www.w3.org/2000/svg"
   xmlns="http://www.w3.org/2000/svg"
   xmlns:sodipodi="http://sodipodi.sourceforge.net/DTD/sodipodi-0.dtd"
   xmlns:inkscape="http://www.inkscape.org/namespaces/inkscape"
   class="icon icon-tabler icon-tabler-list"
   width="65"
   height="50"
   viewBox="0 0 35.454544 27.272727"
   stroke-width="1.5"
   stroke="#2c3e50"
   fill="none"
   stroke-linecap="round"
   stroke-linejoin="round"
   version="1.1"
   id="svg16"
   sodipodi:docname="appIcon.svg"
   inkscape:version="1.0.2 (e86c870879, 2021-01-15, custom)"
   inkscape:export-filename="D:\College\6th sem\18CSMP68 Mobile Development Lab\Mini Project\Productify Life\assets\appIcon.png"
   inkscape:export-xdpi="955.91541"
   inkscape:export-ydpi="955.91541">
  <metadata
     id="metadata22">
    <rdf:RDF>
      <cc:Work
         rdf:about="">
        <dc:format>image/svg+xml</dc:format>
        <dc:type
           rdf:resource="http://purl.org/dc/dcmitype/StillImage" />
        <dc:title></dc:title>
      </cc:Work>
    </rdf:RDF>
  </metadata>
  <defs
     id="defs20" />
  <sodipodi:namedview
     pagecolor="#ffffff"
     bordercolor="#000000"
     borderopacity="0.18039216"
     objecttolerance="10"
     gridtolerance="10"
     guidetolerance="10"
     inkscape:pageopacity="0"
     inkscape:pageshadow="2"
     inkscape:window-width="1920"
     inkscape:window-height="1001"
     id="namedview18"
     showgrid="false"
     inkscape:zoom="5.6568543"
     inkscape:cx="46.674548"
     inkscape:cy="14.624622"
     inkscape:window-x="-9"
     inkscape:window-y="-9"
     inkscape:window-maximized="1"
     inkscape:current-layer="g849"
     inkscape:document-rotation="0"
     units="px" />
  <g
     id="g849"
     transform="matrix(0.99464276,0,0,0.99295775,0.0813123,0.09574592)">
    <path
       id="rect862-7-6"
       style="font-size:22.9583px;line-height:1.25;font-family:'Arial Rounded MT Bold';-inkscape-font-specification:'Arial Rounded MT Bold, Normal';fill:#ffb300;fill-opacity:1;stroke:#000000;stroke-width:0.549997;stroke-linecap:round;stroke-linejoin:round;stroke-miterlimit:4;stroke-dasharray:none;stroke-opacity:1"
       d="m 30.362697,11.205551 h 2.494832 c 1.346901,0 2.431229,1.084328 2.431229,2.431229 0,1.3469 -1.084328,2.431228 -2.431229,2.431228 h -2.494832 c -1.3469,0 -2.431228,-1.084328 -2.431228,-2.431228 0,-1.346901 1.084328,-2.431229 2.431228,-2.431229 z" />
    <path
       stroke="none"
       d="M 0.03591239,0.21579682 H 23.880505 V 23.847596 H 0.03591239 Z"
       fill="none"
       id="path2"
       style="stroke-width:0.549997;stroke-miterlimit:4;stroke-dasharray:none" />
    <g
       aria-label="P"
       transform="matrix(0.97621194,0,0,1.1603002,3.5441756,0.21568886)"
       id="text842"
       style="font-size:31.7903px;line-height:1.25;font-family:'Arial Rounded MT Bold';-inkscape-font-specification:'Arial Rounded MT Bold, Normal';fill:#0077ff;fill-opacity:1;stroke:#000000;stroke-width:0.516777;stroke-miterlimit:4;stroke-dasharray:none">
      <path
         d="m 14.490325,13.892792 h -4.222149 v 6.441882 q 0,1.381512 -0.6519493,2.095552 -0.6519495,0.71404 -1.6453964,0.71404 -1.0400147,0 -1.6764416,-0.698517 -0.6364269,-0.71404 -0.6364269,-2.08003 V 2.8251726 q 0,-1.5212155 0.6985173,-2.17316504 Q 7.0549964,5.8045611e-5 8.576212,5.8045611e-5 h 5.914113 q 2.623321,0 4.035878,0.403587794389 1.397035,0.38806519 2.406005,1.28837646 1.024492,0.9003112 1.55226,2.2042103 0.527769,1.303899 0.527769,2.9337728 0,3.4770636 -2.14212,5.2776866 -2.14212,1.7851 -6.379792,1.7851 z M 13.372698,3.4615995 h -3.104522 v 6.9541285 h 3.104522 q 1.629874,0 2.716456,-0.341498 1.102105,-0.341497 1.676442,-1.1176274 0.574336,-0.7761303 0.574336,-2.0334616 0,-1.5056929 -0.884788,-2.452572 -0.993447,-1.0089695 -4.082446,-1.0089695 z"
         style="fill:#0077ff;fill-opacity:1;stroke:#000000;stroke-width:0.516777;stroke-miterlimit:4;stroke-dasharray:none"
         id="path838" />
    </g>
    <path
       id="rect862-7"
       style="font-size:22.9583px;line-height:1.25;font-family:'Arial Rounded MT Bold';-inkscape-font-specification:'Arial Rounded MT Bold, Normal';fill:#ffb300;fill-opacity:1;stroke:#000000;stroke-width:0.549997;stroke-linecap:round;stroke-linejoin:round;stroke-miterlimit:4;stroke-dasharray:none;stroke-opacity:1"
       d="m 30.362697,0.63767368 h 2.494832 c 1.346901,0 2.431229,1.08432782 2.431229,2.43122842 0,1.3469005 -1.084328,2.4312284 -2.431229,2.4312284 h -2.494832 c -1.3469,0 -2.431228,-1.0843279 -2.431228,-2.4312284 0,-1.3469006 1.084328,-2.43122842 2.431228,-2.43122842 z" />
    <path
       id="path906"
       style="fill:#ffb300;fill-opacity:1;fill-rule:evenodd;stroke:#000000;stroke-width:0.549997;stroke-miterlimit:4;stroke-dasharray:none"
       d="M 5.4316658,3.0863783 A 2.6192377,2.6156662 0 0 1 2.7953836,5.6845124 2.6192377,2.6156662 0 0 1 0.19330226,3.0522189 2.6192377,2.6156662 0 0 1 2.8287954,0.45328657 2.6192377,2.6156662 0 0 1 5.431676,3.0847919" />
    <path
       id="path906-7"
       style="fill:#ffb300;fill-opacity:1;fill-rule:evenodd;stroke:#000000;stroke-width:0.549997;stroke-miterlimit:4;stroke-dasharray:none"
       d="M 5.4319424,13.654256 A 2.6192441,2.6156726 0 0 1 2.7956537,16.252397 2.6192441,2.6156726 0 0 1 0.19356596,13.620097 2.6192441,2.6156726 0 0 1 2.8290656,11.021158 2.6192441,2.6156726 0 0 1 5.4319525,13.65267" />
    <path
       id="path906-7-4"
       style="fill:#ffb300;fill-opacity:1;fill-rule:evenodd;stroke:#000000;stroke-width:0.549997;stroke-miterlimit:4;stroke-dasharray:none"
       d="m 5.4319427,24.222135 a 2.6192441,2.6156714 0 0 1 -2.6362888,2.598139 2.6192441,2.6156714 0 0 1 -2.60208771,-2.632299 2.6192441,2.6156714 0 0 1 2.63549961,-2.598937 2.6192441,2.6156714 0 0 1 2.602887,2.63151" />
    <path
       id="rect950"
       style="fill:#ffb300;fill-opacity:1;stroke:#000000;stroke-width:0.549997;stroke-linecap:round;stroke-linejoin:round;stroke-miterlimit:4;stroke-dasharray:none"
       d="m 20.511004,21.788839 h 12.361934 c 1.338364,0 2.415819,1.077456 2.415819,2.41582 0,1.338364 -1.077455,2.41582 -2.415819,2.41582 H 20.511004 c -1.338364,0 -2.41582,-1.077456 -2.41582,-2.41582 0,-1.338364 1.077456,-2.41582 2.41582,-2.41582 z" />
  </g>
</svg>
