<?xml version="1.0" encoding="UTF-8" standalone="no"?>
<svg
   xmlns:dc="http://purl.org/dc/elements/1.1/"
   xmlns:cc="http://creativecommons.org/ns#"
   xmlns:rdf="http://www.w3.org/1999/02/22-rdf-syntax-ns#"
   xmlns:svg="http://www.w3.org/2000/svg"
   xmlns="http://www.w3.org/2000/svg"
   xmlns:sodipodi="http://sodipodi.sourceforge.net/DTD/sodipodi-0.dtd"
   xmlns:inkscape="http://www.inkscape.org/namespaces/inkscape"
   class="icon icon-tabler icon-tabler-list"
   width="60"
   height="50"
   viewBox="0 0 32.727272 27.272727"
   stroke-width="1.5"
   stroke="#2c3e50"
   fill="none"
   stroke-linecap="round"
   stroke-linejoin="round"
   version="1.1"
   id="svg16"
   sodipodi:docname="appIcon.svg"
   inkscape:version="1.0.2 (e86c870879, 2021-01-15, custom)"
   inkscape:export-filename="D:\College\6th sem\18CSMP68 Mobile Development Lab\Mini Project\Productify Life\assets\appIcon.png"
   inkscape:export-xdpi="96"
   inkscape:export-ydpi="96">
  <metadata
     id="metadata22">
    <rdf:RDF>
      <cc:Work
         rdf:about="">
        <dc:format>image/svg+xml</dc:format>
        <dc:type
           rdf:resource="http://purl.org/dc/dcmitype/StillImage" />
        <dc:title></dc:title>
      </cc:Work>
    </rdf:RDF>
  </metadata>
  <defs
     id="defs20" />
  <sodipodi:namedview
     pagecolor="#ffffff"
     bordercolor="#666666"
     borderopacity="1"
     objecttolerance="10"
     gridtolerance="10"
     guidetolerance="10"
     inkscape:pageopacity="0"
     inkscape:pageshadow="2"
     inkscape:window-width="1920"
     inkscape:window-height="1001"
     id="namedview18"
     showgrid="false"
     inkscape:zoom="8.3522725"
     inkscape:cx="13.347216"
     inkscape:cy="20.793709"
     inkscape:window-x="-9"
     inkscape:window-y="-9"
     inkscape:window-maximized="1"
     inkscape:current-layer="svg16"
     inkscape:document-rotation="0"
     units="px" />
  <path
     stroke="none"
     d="M 0,0 H 24 V 24 H 0 Z"
     fill="none"
     id="path2" />
  <g
     aria-label="P"
     transform="scale(0.84862371,1.1783786)"
     id="text842"
     style="font-size:31.7903px;line-height:1.25;font-family:'Arial Rounded MT Bold';-inkscape-font-specification:'Arial Rounded MT Bold, Normal';fill:#000000;fill-opacity:1;stroke:none;stroke-width:0.496725">
    <path
       d="m 14.490325,13.892792 h -4.222149 v 6.441882 q 0,1.381512 -0.6519493,2.095552 -0.6519495,0.71404 -1.6453964,0.71404 -1.0400147,0 -1.6764416,-0.698517 -0.6364269,-0.71404 -0.6364269,-2.08003 V 2.8251726 q 0,-1.5212155 0.6985173,-2.17316504 Q 7.0549964,5.8045611e-5 8.576212,5.8045611e-5 h 5.914113 q 2.623321,0 4.035878,0.403587794389 1.397035,0.38806519 2.406005,1.28837646 1.024492,0.9003112 1.55226,2.2042103 0.527769,1.303899 0.527769,2.9337728 0,3.4770636 -2.14212,5.2776866 -2.14212,1.7851 -6.379792,1.7851 z M 13.372698,3.4615995 h -3.104522 v 6.9541285 h 3.104522 q 1.629874,0 2.716456,-0.341498 1.102105,-0.341497 1.676442,-1.1176274 0.574336,-0.7761303 0.574336,-2.0334616 0,-1.5056929 -0.884788,-2.452572 -0.993447,-1.0089695 -4.082446,-1.0089695 z"
       style="fill:#000000;fill-opacity:1;stroke:none;stroke-width:0.496725"
       id="path838" />
  </g>
  <rect
     style="font-size:22.9583px;line-height:1.25;font-family:'Arial Rounded MT Bold';-inkscape-font-specification:'Arial Rounded MT Bold, Normal';fill:#000000;fill-opacity:1;stroke:none;stroke-width:0.613621;stroke-linecap:round;stroke-linejoin:round;stroke-miterlimit:4;stroke-dasharray:none;stroke-opacity:1"
     id="rect862"
     width="22.165634"
     height="2.7272727"
     x="10.528675"
     y="24"
     ry="1.3636364" />
  <rect
     style="font-size:22.9583px;line-height:1.25;font-family:'Arial Rounded MT Bold';-inkscape-font-specification:'Arial Rounded MT Bold, Normal';fill:#000000;fill-opacity:1;stroke:none;stroke-width:0.369449;stroke-linecap:round;stroke-linejoin:round;stroke-miterlimit:4;stroke-dasharray:none;stroke-opacity:1"
     id="rect862-7"
     width="8.0350428"
     height="2.7272727"
     x="24.705446"
     y="0.5454545"
     ry="1.3636364" />
  <circle
     style="fill:#000000;fill-rule:evenodd;stroke:none;stroke-width:0.174919"
     id="path906"
     sodipodi:type="arc"
     sodipodi:cx="1.6363636"
     sodipodi:cy="1.9090909"
     sodipodi:rx="1.6363636"
     sodipodi:ry="1.6363636"
     sodipodi:start="0.0066814505"
     sodipodi:end="0.0060749326"
     sodipodi:arc-type="arc"
     d="M 3.2726907,1.9200241 A 1.6363636,1.6363636 0 0 1 1.6256785,3.5454196 1.6363636,1.6363636 0 0 1 3.3284609e-5,1.8986539 1.6363636,1.6363636 0 0 1 1.6465525,0.27275897 1.6363636,1.6363636 0 0 1 3.2726971,1.9190316"
     sodipodi:open="true" />
  <circle
     style="fill:#000000;fill-rule:evenodd;stroke:none;stroke-width:0.174919"
     id="path906-7"
     sodipodi:type="arc"
     sodipodi:cx="1.6363636"
     sodipodi:cy="13.779242"
     sodipodi:rx="1.6363636"
     sodipodi:ry="1.6363636"
     sodipodi:start="0.0066814505"
     sodipodi:end="0.0060749326"
     sodipodi:arc-type="arc"
     sodipodi:open="true"
     d="M 3.2726907,13.790175 A 1.6363636,1.6363636 0 0 1 1.6256785,15.41557 1.6363636,1.6363636 0 0 1 3.3284609e-5,13.768805 1.6363636,1.6363636 0 0 1 1.6465525,12.14291 1.6363636,1.6363636 0 0 1 3.2726971,13.789182" />
  <circle
     style="fill:#000000;fill-rule:evenodd;stroke:none;stroke-width:0.174919"
     id="path906-7-4"
     sodipodi:type="arc"
     sodipodi:cx="1.6363636"
     sodipodi:cy="25.363636"
     sodipodi:rx="1.6363636"
     sodipodi:ry="1.6363636"
     sodipodi:start="0.0066814505"
     sodipodi:end="0.0060749326"
     sodipodi:arc-type="arc"
     sodipodi:open="true"
     d="M 3.2726907,25.374569 A 1.6363636,1.6363636 0 0 1 1.6256785,26.999965 1.6363636,1.6363636 0 0 1 3.3284609e-5,25.353199 1.6363636,1.6363636 0 0 1 1.6465525,23.727304 1.6363636,1.6363636 0 0 1 3.2726971,25.373577" />
  <rect
     style="fill:#000000;stroke:none;stroke-width:0.843363;stroke-linecap:round;stroke-linejoin:round"
     id="rect948"
     width="3.8857143"
     height="16.261225"
     x="20.244898"
     y="0.06530612"
     ry="1.8285714" />
  <rect
     style="fill:#000000;stroke:none;stroke-width:0.893936;stroke-linecap:round;stroke-linejoin:round"
     id="rect950"
     width="12.47347"
     height="4.1795921"
     x="20.244898"
     y="12.146937"
     ry="2.0897961" />
</svg>
