<?xml version="1.0" encoding="UTF-8" standalone="no"?>
<svg
   xmlns:dc="http://purl.org/dc/elements/1.1/"
   xmlns:cc="http://creativecommons.org/ns#"
   xmlns:rdf="http://www.w3.org/1999/02/22-rdf-syntax-ns#"
   xmlns:svg="http://www.w3.org/2000/svg"
   xmlns="http://www.w3.org/2000/svg"
   xmlns:sodipodi="http://sodipodi.sourceforge.net/DTD/sodipodi-0.dtd"
   xmlns:inkscape="http://www.inkscape.org/namespaces/inkscape"
   width="50"
   height="50"
   fill="currentColor"
   class="bi bi-calendar-check"
   viewBox="0 0 50 50"
   version="1.1"
   id="svg6"
   sodipodi:docname="calendar_blue.svg"
   inkscape:version="1.0.2 (e86c870879, 2021-01-15, custom)">
  <metadata
     id="metadata12">
    <rdf:RDF>
      <cc:Work
         rdf:about="">
        <dc:format>image/svg+xml</dc:format>
        <dc:type
           rdf:resource="http://purl.org/dc/dcmitype/StillImage" />
        <dc:title />
      </cc:Work>
    </rdf:RDF>
  </metadata>
  <defs
     id="defs10" />
  <sodipodi:namedview
     pagecolor="#ffffff"
     bordercolor="#666666"
     borderopacity="1"
     objecttolerance="10"
     gridtolerance="10"
     guidetolerance="10"
     inkscape:pageopacity="0"
     inkscape:pageshadow="2"
     inkscape:window-width="1920"
     inkscape:window-height="1001"
     id="namedview8"
     showgrid="false"
     inkscape:zoom="11.849441"
     inkscape:cx="10.453584"
     inkscape:cy="22.385368"
     inkscape:window-x="-9"
     inkscape:window-y="-9"
     inkscape:window-maximized="1"
     inkscape:current-layer="g839"
     inkscape:document-rotation="0" />
  <g
     id="g839"
     transform="scale(3.125)">
    <path
       d="m 10.854,7.146 a 0.5,0.5 0 0 1 0,0.708 l -3,3 a 0.5,0.5 0 0 1 -0.708,0 l -1.5,-1.5 A 0.5006316,0.5006316 0 1 1 6.354,8.646 L 7.5,9.793 10.146,7.146 a 0.5,0.5 0 0 1 0.708,0 z"
       id="path2"
       style="fill:#0077ff;stroke:#0077ff;stroke-opacity:1;fill-opacity:1" />
    <path
       d="M 3.7647059,0.47058824 A 0.47058824,0.47058824 0 0 1 4.2352941,0.94117647 V 1.4117647 H 11.764706 V 0.94117647 a 0.47058824,0.47058824 0 0 1 0.941176,0 V 1.4117647 h 0.941177 a 1.8823529,1.8823529 0 0 1 1.882353,1.8823529 V 13.647059 a 1.8823529,1.8823529 0 0 1 -1.882353,1.882353 H 2.3529412 A 1.8823529,1.8823529 0 0 1 0.47058824,13.647059 V 3.2941176 A 1.8823529,1.8823529 0 0 1 2.3529412,1.4117647 H 3.2941176 V 0.94117647 A 0.47058824,0.47058824 0 0 1 3.7647059,0.47058824 Z M 1.4117647,4.2352941 v 9.4117649 a 0.94117647,0.94117647 0 0 0 0.9411765,0.941176 H 13.647059 a 0.94117647,0.94117647 0 0 0 0.941176,-0.941176 V 4.2352941 Z"
       id="path4"
       style="fill:#0077ff;stroke:#0077ff;stroke-width:0.941176;fill-opacity:1;stroke-opacity:1" />
  </g>
</svg>
