<?xml version="1.0" encoding="UTF-8" standalone="no"?>
<svg
   xmlns:dc="http://purl.org/dc/elements/1.1/"
   xmlns:cc="http://creativecommons.org/ns#"
   xmlns:rdf="http://www.w3.org/1999/02/22-rdf-syntax-ns#"
   xmlns:svg="http://www.w3.org/2000/svg"
   xmlns="http://www.w3.org/2000/svg"
   xmlns:sodipodi="http://sodipodi.sourceforge.net/DTD/sodipodi-0.dtd"
   xmlns:inkscape="http://www.inkscape.org/namespaces/inkscape"
   width="45"
   height="45"
   viewBox="0 0 45 45"
   version="1.1"
   id="svg8"
   sodipodi:docname="coin_color.svg"
   inkscape:version="1.0.2 (e86c870879, 2021-01-15, custom)">
  <metadata
     id="metadata14">
    <rdf:RDF>
      <cc:Work
         rdf:about="">
        <dc:format>image/svg+xml</dc:format>
        <dc:type
           rdf:resource="http://purl.org/dc/dcmitype/StillImage" />
      </cc:Work>
    </rdf:RDF>
  </metadata>
  <defs
     id="defs12" />
  <sodipodi:namedview
     pagecolor="#ffffff"
     bordercolor="#666666"
     borderopacity="1"
     objecttolerance="10"
     gridtolerance="10"
     guidetolerance="10"
     inkscape:pageopacity="0"
     inkscape:pageshadow="2"
     inkscape:window-width="1920"
     inkscape:window-height="1001"
     id="namedview10"
     showgrid="false"
     inkscape:zoom="16.333333"
     inkscape:cx="22.5"
     inkscape:cy="22.5"
     inkscape:window-x="-9"
     inkscape:window-y="-9"
     inkscape:window-maximized="1"
     inkscape:current-layer="_" />
  <g
     id="Rupee_Coin"
     data-name="Rupee Coin"
     transform="translate(0 -0.25)">
    <circle
       id="Ellipse_7"
       data-name="Ellipse 7"
       cx="22.5"
       cy="22.5"
       r="22.5"
       transform="translate(0 0.25)"
       fill="#fcd630" />
    <circle
       id="Ellipse_8"
       data-name="Ellipse 8"
       cx="17.5"
       cy="17.5"
       r="17.5"
       transform="translate(5 5.25)"
       fill="#f99c1b" />
    <g
       aria-label="₹"
       transform="translate(16 32.25)"
       id="_"
       style="font-size:25px;font-family:SegoeUI, 'Segoe UI';fill:#fadd5e">
      <path
         d="M 1.5991211,-13.513184 H 7.5195312 Q 7.421875,-14.025879 7.1899414,-14.440918 6.9702148,-14.868164 6.5551758,-15.161133 6.1523437,-15.466309 5.5419922,-15.625 4.9438477,-15.795898 4.1137695,-15.795898 H 1.5991211 v -1.708985 H 12.62207 v 1.708985 H 8.6181641 q 0.3540039,0.45166 0.5737304,1.02539 0.2319336,0.561524 0.3051758,1.257324 H 12.62207 v 1.708985 H 9.4360352 q -0.2563477,1.464844 -1.2084961,2.5024412 -0.9399414,1.0253906 -2.3925782,1.4160156 v 0.048828 q 0.4150391,0.1953125 0.756836,0.4516602 0.3417968,0.2563477 0.6591797,0.5981445 0.3173828,0.3295899 0.6225586,0.769043 0.3173828,0.4394531 0.6713867,1.0009766 L 11.657715,0 H 9.3383789 L 6.5551758,-4.6630859 Q 6.1523437,-5.3344727 5.7861328,-5.847168 5.4321289,-6.3598633 5.0170898,-6.7016602 4.6142578,-7.043457 4.1137695,-7.2143555 3.6254883,-7.3852539 2.9663086,-7.3852539 H 1.5991211 v -1.6723633 h 2.5024414 q 0.6225586,0 1.184082,-0.1953125 0.5615235,-0.2075195 1.0009766,-0.5615234 0.4516601,-0.3662109 0.7568359,-0.8666989 0.3173828,-0.512696 0.4516602,-1.123047 H 1.5991211 Z"
         id="path839" />
    </g>
  </g>
</svg>
