<?xml version="1.0" encoding="UTF-8" standalone="no"?>
<svg
   xmlns:dc="http://purl.org/dc/elements/1.1/"
   xmlns:cc="http://creativecommons.org/ns#"
   xmlns:rdf="http://www.w3.org/1999/02/22-rdf-syntax-ns#"
   xmlns:svg="http://www.w3.org/2000/svg"
   xmlns="http://www.w3.org/2000/svg"
   xmlns:sodipodi="http://sodipodi.sourceforge.net/DTD/sodipodi-0.dtd"
   xmlns:inkscape="http://www.inkscape.org/namespaces/inkscape"
   width="57.153"
   height="50"
   viewBox="0 0 57.152999 50"
   version="1.1"
   id="svg9"
   sodipodi:docname="routine.svg"
   inkscape:version="1.0.2 (e86c870879, 2021-01-15, custom)">
  <metadata
     id="metadata15">
    <rdf:RDF>
      <cc:Work
         rdf:about="">
        <dc:format>image/svg+xml</dc:format>
        <dc:type
           rdf:resource="http://purl.org/dc/dcmitype/StillImage" />
        <dc:title />
      </cc:Work>
    </rdf:RDF>
  </metadata>
  <defs
     id="defs13" />
  <sodipodi:namedview
     pagecolor="#ffffff"
     bordercolor="#666666"
     borderopacity="1"
     objecttolerance="10"
     gridtolerance="10"
     guidetolerance="10"
     inkscape:pageopacity="0"
     inkscape:pageshadow="2"
     inkscape:window-width="1920"
     inkscape:window-height="1001"
     id="namedview11"
     showgrid="false"
     inkscape:zoom="12.25"
     inkscape:cx="29.794987"
     inkscape:cy="25.552805"
     inkscape:window-x="-9"
     inkscape:window-y="-9"
     inkscape:window-maximized="1"
     inkscape:current-layer="g841"
     inkscape:document-rotation="0" />
  <g
     id="Group"
     transform="translate(-0.795,-5.621)">
    <g
       id="Group_41"
       data-name="Group 41">
      <g
         id="g841"
         transform="matrix(1.6666667,0,0,1.6666667,-0.53039076,-3.7469359)">
        <g
           id="g842"
           transform="matrix(0.96496742,0,0,0.96496742,0.49671,0.74388766)">
          <g
             id="arrow-clockwise"
             transform="rotate(-90,18.208,17.413)"
             style="fill:#000000">
            <g
               id="Group_38"
               data-name="Group 38"
               style="fill:#000000">
              <path
                 id="Shape"
                 d="M 15,2.5 A 12.5,12.5 0 1 0 26.362,9.784 1.25,1.25 0 0 1 28.632,8.741 15,15 0 1 1 15,0 Z"
                 transform="translate(0,4.292)"
                 fill="#707070"
                 fill-rule="evenodd"
                 style="fill:#000000;stroke:#000000" />
              <path
                 id="Shape-2"
                 data-name="Shape"
                 d="M 0,10.454 V 0.625 a 0.625,0.625 0 0 1 1.025,-0.48 l 5.9,4.915 a 0.624,0.624 0 0 1 0,0.96 l -5.9,4.915 A 0.625,0.625 0 0 1 0,10.454 Z"
                 transform="translate(14.998)"
                 fill="#707070"
                 fill-rule="evenodd"
                 style="fill:#000000;stroke:#000000" />
            </g>
          </g>
          <path
             id="Shape-3"
             data-name="Shape"
             d="M 1.943,0.956 A 0.964,0.964 0 0 0 0.972,0 0.964,0.964 0 0 0 0,0.956 v 10.511 a 0.953,0.953 0 0 0 0.49,0.829 l 6.8,3.822 A 0.98,0.98 0 0 0 8.6,15.753 0.947,0.947 0 0 0 8.258,14.461 L 1.943,10.913 Z"
             transform="translate(18.086,10.641)"
             fill="#707070"
             fill-rule="evenodd"
             style="fill:#000000;stroke:#000000" />
        </g>
      </g>
    </g>
  </g>
</svg>
