<?xml version="1.0" encoding="UTF-8" standalone="no"?>
<svg
   xmlns:dc="http://purl.org/dc/elements/1.1/"
   xmlns:cc="http://creativecommons.org/ns#"
   xmlns:rdf="http://www.w3.org/1999/02/22-rdf-syntax-ns#"
   xmlns:svg="http://www.w3.org/2000/svg"
   xmlns="http://www.w3.org/2000/svg"
   xmlns:sodipodi="http://sodipodi.sourceforge.net/DTD/sodipodi-0.dtd"
   xmlns:inkscape="http://www.inkscape.org/namespaces/inkscape"
   width="50"
   height="50"
   viewBox="0 0 49.999999 50"
   version="1.1"
   id="svg3"
   sodipodi:docname="settings.svg"
   inkscape:version="1.0.2 (e86c870879, 2021-01-15, custom)">
  <metadata
     id="metadata9">
    <rdf:RDF>
      <cc:Work
         rdf:about="">
        <dc:format>image/svg+xml</dc:format>
        <dc:type
           rdf:resource="http://purl.org/dc/dcmitype/StillImage" />
        <dc:title></dc:title>
      </cc:Work>
    </rdf:RDF>
  </metadata>
  <defs
     id="defs7" />
  <sodipodi:namedview
     pagecolor="#ffffff"
     bordercolor="#666666"
     borderopacity="1"
     objecttolerance="10"
     gridtolerance="10"
     guidetolerance="10"
     inkscape:pageopacity="0"
     inkscape:pageshadow="2"
     inkscape:window-width="1920"
     inkscape:window-height="1001"
     id="namedview5"
     showgrid="false"
     inkscape:zoom="12.25"
     inkscape:cx="32.853098"
     inkscape:cy="23.711762"
     inkscape:window-x="-9"
     inkscape:window-y="-9"
     inkscape:window-maximized="1"
     inkscape:current-layer="svg3"
     inkscape:document-rotation="0" />
  <path
     id="icons8-settings"
     d="m 21.042729,0 a 2.61778,2.5 0 0 0 -2.56717,2.0216667 L 17.602966,6.3083333 A 20.896865,19.956667 0 0 0 11.723432,9.5366667 L 7.4145662,8.12 A 2.61778,2.5 0 0 0 4.2959176,9.2333333 L 0.35179565,15.766667 a 2.61778,2.5 0 0 0 0.54624343,3.14 l 3.45197932,2.866666 a 19.406476,18.533333 0 0 0 0,6.455 L 0.89803908,31.095 a 2.61778,2.5 0 0 0 -0.54624343,3.14 l 3.94761225,6.533333 a 2.61778,2.5 0 0 0 3.1186487,1.118334 L 11.723432,40.47 a 20.905591,19.965 0 0 0 5.879534,3.223333 L 18.475559,47.98 a 2.61778,2.5 0 0 0 2.56717,2.02 h 7.903951 a 2.61778,2.5 0 0 0 2.567169,-2.021667 l 0.872594,-4.286666 a 20.89512,19.955 0 0 0 5.879534,-3.228334 L 42.571352,41.88 a 2.61778,2.5 0 0 0 3.118649,-1.113333 l 3.958083,-6.538334 a 2.61778,2.5 0 0 0 -0.547988,-3.135 l -3.465941,-2.865 a 19.402986,18.53 0 0 0 0,-6.455 l 3.451979,-2.866666 a 2.61778,2.5 0 0 0 0.56195,-3.14 L 45.693491,9.2333333 A 2.61778,2.5 0 0 0 42.574842,8.115 L 38.269467,9.5316667 A 20.900356,19.96 0 0 0 32.388188,6.3083333 L 31.515594,2.0216667 A 2.61778,2.5 0 0 0 28.948425,0 Z m 3.952848,15 a 10.47112,10 0 1 1 -10.47112,10 10.47112,10 0 0 1 10.47112,-10 z"
     fill="#707070"
     style="fill:#000000;stroke-width:1.70548" />
</svg>
